<?xml version="1.0" standalone="no"?>
<!DOCTYPE svg PUBLIC "-//W3C//DTD SVG 1.1//EN" "http://www.w3.org/Graphics/SVG/1.1/DTD/svg11.dtd" >
<!--
2013-9-30: Created.
-->
<svg>
<metadata>
Created by iconfont
</metadata>
<defs>

<font id="iconfont" horiz-adv-x="1024" >
  <font-face
    font-family="iconfont"
    font-weight="500"
    font-stretch="normal"
    units-per-em="1024"
    ascent="896"
    descent="-128"
  />
    <missing-glyph />
    
    <glyph glyph-name="rili" unicode="&#58912;" d="M332.02923559 556.41450289l44.74282892-1e-8c6.72900265 0 12.24907682 5.50108979 12.24907681 12.22912226L389.02114132 667.0692292599999c0 6.72872702-5.52007484 12.22981682-12.24907681 12.22981681l-44.74282892 0c-6.80751324 0-12.22962332-5.50108979-12.2296233-12.22981681l0-98.42629935C319.79961229 561.91559269 325.22172236 556.41450289 332.02923559 556.41450289zM647.26753841 556.41450289l44.76297763-1e-8c6.74845615 0 12.22962332 5.50108979 12.22962331 12.22912226L704.26013935 667.0692292599999c0 6.72872702-5.48116648 12.22981682-12.22962331 12.22981681l-44.76297763 0c-6.74776161 0-12.3081339-5.50108979-12.30813391-12.22981681l0-98.42629935C634.9594045 561.91559269 640.5197768 556.41450289 647.26753841 556.41450289zM744.68973621 632.24242382l-15.71327995 0 0-63.59949391c0-20.34180562-16.58245758-37.00348057-36.94594022-37.00348057l-44.76297763 0c-20.34263935 0-37.00499731 16.66098038-37.00499732 37.00348057l0 63.59949391L413.71800473 632.24242382l0-63.59949391c0-20.34180562-16.58245758-37.00348057-36.94594022-37.00348057l-44.74282892 0c-20.38293682 0-36.98554312 16.66098038-36.98554311 37.00348057l0 63.59949391-15.87099638 0c-39.22136429 0-71.14122283-31.89840219-71.14122282-71.15845554l-1e-8-132.10536524 0-269.00108415c0-39.37816208 31.91985855-71.27725951 71.14122283-71.2772595l465.51704011 0c39.32002427 0 71.27948505 31.89909742 71.27948506 71.2772595L815.96922127 428.97860237 815.96922127 561.0846628300001C815.96922127 600.34402163 784.0097605 632.24242382 744.68973621 632.24242382zM770.88942174 159.97821345c0-14.48569437-11.73493559-26.19861145-26.19968552-26.19861144L279.1726961 133.77960131999998c-14.34663574 0-26.04196911 11.71291708-26.0419691 26.19861146L253.13072699 428.97860237l517.75938929 0L770.89011628 159.97821345z"  horiz-adv-x="1024" />

    
    <glyph glyph-name="sousuo" unicode="&#58880;" d="M713.810736 207.52672349L692.41845698 186.11916029999998 792.37669656 86.17342599999995 813.77036537 107.56709481999997ZM473.21828699 683.89486748C327.00100646 683.89486748 208.47050877 565.37895938 208.47050877 419.14708856c0-146.20269024 118.53049838-264.74708369 264.74708368-264.74708369 146.21728055 0 264.74847347 118.54439345 264.74847347 264.74708369C737.96676046 565.37895938 619.43556754 683.89486748 473.21828699 683.89486748zM473.21828699 184.65738994000003c-129.50697217 0-234.49108839 104.98133665-234.49108839 234.48969862 0 129.50766741 104.98342099 234.49039317 234.49108839 234.49039317 129.50836196 0 234.49178295-104.98272643 234.49178295-234.49039317C707.7093754 289.63942182000005 602.72664896 184.65738994000003 473.21828699 184.65738994000003z"  horiz-adv-x="1024" />

    
    <glyph glyph-name="sousuo1" unicode="&#58931;" d="M774.42475977 149.88861373999998L644.48765444 279.82656280000003c37.04581933 43.50529743 59.41606668 99.89242932 59.41606669 161.51227872 0 137.67312359-111.60571866 249.27968682-249.27884308 249.27968683s-249.27968682-111.60656241-249.27968682-249.27968683 111.60656241-249.27884308 249.27968682-249.27884308c61.61900564 0 118.00613754 22.37024817 161.51312246 59.41606668L746.09282458 121.53811687999996c7.82713999-7.82713999 20.50479519-7.82713999 28.33193519 0S782.2527435 142.06147375 774.42475977 149.88861373999998zM454.62403512 230.41020089999995c-116.49420098 0-210.92864063 94.45384507-210.92864062 210.92864063 0 116.51276267 94.43443964 210.92864063 210.92864063 210.92864062 116.49335724 0 210.92864063-94.41587796 210.92864062-210.92864062C665.55267575 324.86404596 571.11823611 230.41020089999995 454.62403512 230.41020089999995z"  horiz-adv-x="1024" />

    
    <glyph glyph-name="gengduo-copy" unicode="&#58908;" d="M289.11113281 446.40498047c34.46455078 0 62.409375-27.94306641 62.409375-62.40585938s-27.94306641-62.40585937-62.409375-62.40585937c-34.46455078 0-62.409375 27.94306641-62.409375 62.40585937s27.94482422 62.40585937 62.409375 62.40585938zM511.99912109 446.40498047c34.46455078 0 62.409375-27.94306641 62.409375-62.40585938s-27.94306641-62.40585937-62.409375-62.40585937c-34.46455078 0-62.409375 27.94306641-62.409375 62.40585937s27.94482422 62.40585937 62.409375 62.40585938zM734.88710937 446.40498047c34.46455078 0 62.409375-27.94306641 62.40937501-62.40585938s-27.94306641-62.40585937-62.409375-62.40585937c-34.46367187 0-62.409375 27.94306641-62.409375 62.40585937s27.94482422 62.40585937 62.409375 62.40585938z"  horiz-adv-x="1024" />

    
    <glyph glyph-name="bofangsanjiaoxing" unicode="&#59241;" d="M737.43945313 399.42480469L281.07287598 675.19262695C267.42785644 683.49829102 251.0637207 683.49829102 237.27038574 675.24206543 223.57592773 666.93640137 215.36914062 652.1048584 215.36914062 635.54296875l1e-8-551.68395997c0-16.56188965 8.20678711-31.44287109 21.90124512-39.69909667C244.14233398 40.00708008000004 251.65698242 37.930664060000026 259.17163086 37.930664060000026c7.51464844 0 15.07873536 2.07641602 21.90124512 6.22924805l456.31713866 275.76782226c13.69445801 8.30566406 21.85180664 23.18664551 21.85180665 39.74853516C759.29125977 376.28759765999996 751.13391114 391.16857911 737.43945313 399.42480469zM262.92895508 90.68151854999996L261.05029297 629.80810547l446.9732666-270.13183594L262.92895508 90.68151854999996z"  horiz-adv-x="1024" />

    
    <glyph glyph-name="gengduoxiao" unicode="&#58932;" d="M512 581.75390625C539.30411667 581.75390625 561.43847656 603.88826614 561.43847656 631.19238281 561.43847656 658.49649949 539.30411667 680.63085938 512 680.63085938 484.69588333 680.63085938 462.56152344 658.49649949 462.56152344 631.19238281 462.56152344 603.88826614 484.69588333 581.75390625 512 581.75390625ZM512 334.56152344C539.30411667 334.56152344 561.43847656 356.69588333 561.43847656 384 561.43847656 411.30411667 539.30411667 433.43847656 512 433.43847656 484.69588333 433.43847656 462.56152344 411.30411667 462.56152344 384 462.56152344 356.69588333 484.69588333 334.56152344 512 334.56152344ZM512 87.36914062000005C539.30411667 87.36914062000005 561.43847656 109.50350284000001 561.43847656 136.80761718999997 561.43847656 164.11173154000005 539.30411667 186.24609375 512 186.24609375 484.69588333 186.24609375 462.56152344 164.11173154000005 462.56152344 136.80761718999997 462.56152344 109.50350284000001 484.69588333 87.36914062000005 512 87.36914062000005Z"  horiz-adv-x="1024" />

    
    <glyph glyph-name="icon-user" unicode="&#58999;" d="M612.87768168 359.39335568c46.02814961 31.00582434 76.3003101 83.4531628 76.30031011 143.05261381 0 96.55981036-79.92564758 175.23822875-178.01725869 175.23822874-98.0938351 0-176.82042341-78.67841839-176.82042342-174.04065189 0-59.59945029 30.28698189-112.06161088 76.29956925-143.05113139-104.14322752-40.54049176-176.8018963-138.37198597-176.80189631-254.01076442l0 0 49.65200469 0 0 0c0 114.44194245 88.40131894 208.71183209 201.02318193 221.82366635 1.21239825 0 31.48529959 2.37884986 56.91824264 0l2.4262782 0 0 0C654.06883714 312.89832892000004 738.82925561 219.91568614000005 738.82925561 106.67132054000001l0 1e-8 50.86736706 0 0 0C788.48348357 221.11252214 715.82333307 320.05118233999997 612.87768168 359.39335568L612.87768168 359.39335568zM511.1607331 372.5170472c-73.87403117 0-133.20150731 58.40261502-133.20150732 131.12575757 0 72.72314255 59.32747615 131.12501599 133.20150732 131.12501598 73.87329031 0 133.20076647-58.40187417 133.20076647-131.12501598C644.36149957 430.91966223 585.03402343 372.5170472 511.1607331 372.5170472L511.1607331 372.5170472zM511.1607331 372.5170472"  horiz-adv-x="1024" />

    
    <glyph glyph-name="pinglun1" unicode="&#58927;" d="M850.879104 799.58409l-676.303067 0c-60.681034 0-110.049418-49.367361-110.049418-110.049418l0-446.200388c0-60.681034 49.367361-110.049418 110.049418-110.049418l90.307795 0L396.936381-35.129846c3.793396-4.838192 9.598612-7.66354 15.746636-7.66354s11.952216 2.825348 15.746636 7.66354l132.052548 168.414711 290.396903 0c60.681034 0 110.049418 49.367361 110.049418 110.049418L960.928522 689.534671C960.928522 750.215706 911.561162 799.58409 850.879104 799.58409zM920.91111 243.334283c0-38.614459-31.416524-70.030983-70.030983-70.030983L550.744419 173.3033c-6.147 0-11.952216-2.825348-15.745612-7.66354L412.683017 9.643893l-122.31579 155.995867c-3.792373 4.838192-9.597589 7.66354-15.745612 7.66354l-100.045577 0c-38.614459 0-70.030983 31.416524-70.030983 70.030983L104.545054 689.534671c0 38.614459 31.416524 70.030983 70.030983 70.030983l676.303067 0c38.614459 0 70.030983-31.416524 70.030983-70.030983L920.910087 243.334283zM272.621051 551.473269c-44.132126 0-80.035848-35.903721-80.035848-80.035848 0-44.132126 35.903721-80.036871 80.035848-80.036871s80.035848 35.904745 80.035848 80.036871C352.655875 515.569548 316.752154 551.473269 272.621051 551.473269zM272.621051 431.417963c-22.065552 0-40.017412 17.951861-40.017412 40.018436 0 22.065552 17.952884 40.017412 40.017412 40.017412 22.065552 0 40.017412-17.951861 40.017412-40.017412C312.638463 449.370847 294.686602 431.417963 272.621051 431.417963zM512.727571 551.473269c-44.132126 0-80.035848-35.903721-80.035848-80.035848 0-44.132126 35.903721-80.036871 80.035848-80.036871 44.132126 0 80.035848 35.904745 80.035848 80.036871C592.763418 515.569548 556.859697 551.473269 512.727571 551.473269zM512.727571 431.417963c-22.065552 0-40.017412 17.951861-40.017412 40.018436 0 22.065552 17.951861 40.017412 40.017412 40.017412 22.065552 0 40.017412-17.951861 40.017412-40.017412C552.746006 449.370847 534.793122 431.417963 512.727571 431.417963zM752.836137 551.473269c-44.131103 0-80.035848-35.903721-80.035848-80.035848 0-44.132126 35.904745-80.036871 80.035848-80.036871s80.035848 35.904745 80.035848 80.036871C832.871985 515.569548 796.96724 551.473269 752.836137 551.473269zM752.836137 431.417963c-22.066575 0-40.017412 17.951861-40.017412 40.018436 0 22.065552 17.951861 40.017412 40.017412 40.017412s40.017412-17.951861 40.017412-40.017412C792.853549 449.370847 774.902712 431.417963 752.836137 431.417963z"  horiz-adv-x="1024" />

    
    <glyph glyph-name="icon_good" unicode="&#58902;" d="M750.91284896 459.18128756L622.0888701 459.18128756c-2.95985239 0-5.50766741 1.32059538-6.97795925 3.60606952-1.48066741 2.30918868-1.72892701 4.91628933-0.67511909 7.46929178 7.31811288 13.83586484 41.63728218 83.57988703 32.51613455 157.72811562-2.54855588 20.82049395-13.72248031 48.85090292-52.49180339 64.14668478-10.0563836 3.95807968-28.73813574 5.81299008-42.86672512 6.229474-33.93603391 0.99970972-40.79393878-5.57139959-43.72192508-8.37784979-0.1193128-0.11264368-0.23492063-0.22899236-0.35052844-0.34534104C496.59676261 678.4786301199999 497.48605193 662.48549708 498.61322674 642.23711325c0.57581511-10.34688486 1.22721966-22.06401671 0.6210209-35.4522724-3.31630911-35.89914071-8.09031266-55.28120818-17.58570257-71.43218998-29.46735302-50.1655693-79.24385864-75.41917234-88.82743684-76.19507713l-69.8914961 0L203.91746152 459.15757303c-8.51791228 0-15.42250537-6.90459308-15.42250536-15.42250535L188.49495616 143.37749126000006c0-8.51717143 6.90459308-15.42250537 15.42250536-15.42250535l119.01289146 1e-8c0.62176175 0 1.23166623 0.04742908 1.83490085 0.1193128l75.75191453 0c0.86261064-0.70179776 1.83564171-1.50734608 2.70788706-2.2321168 16.6223055-13.77806093 60.7755359-50.37751698 133.66616117-50.37751698l151.81656314 0c38.84194839 0 70.14790799 21.16435256 81.70348538 55.23452069 0.10078642 0.29642953 0.19267971 0.59656478 0.27567985 0.89892331 1.62665889 5.97306212 5.81224922 18.409778 11.11241481 34.1546507 20.08608852 59.68022789 53.70568334 159.56894548 53.70568335 213.02711008C835.50504384 431.37912864 806.25334348 459.18128756 750.91284896 459.18128756zM219.33996688 428.31182072l88.16713916 0 0-269.51182336L219.33996688 158.79999736000002 219.33996688 428.31182072zM752.56544566 175.59200887999998c-5.53953351-16.45630447-9.57764919-28.45356275-11.50222076-35.38631694-7.39073819-21.23327215-26.92843113-33.8952747-52.35470432-33.8952747l-151.81656314 0c-61.76857649 0-98.35765769 30.32922282-113.98099431 43.28024492-7.01871848 5.81669506-11.25544286 9.32864801-17.99329335 9.328648l-66.56407058 0L338.35359991 428.31182072l54.57866958 0c14.53469774 0 37.31162864 12.71387745 53.78053193 24.61183175 17.66647943 12.76278823 42.68145612 34.71268027 61.53069103 66.80195534 13.78843577 23.45427326 18.54094807 49.75501437 21.74016764 84.58774831 0.02149125 0.22973322 0.03705351 0.45946643 0.04816992 0.68994051 0.70624433 15.10828957-0.02890195 28.32683924-0.61953846 38.94792222-0.45946643 8.25853626-1.01601356 18.25637508-0.12968838 22.73617167 11.5444617 2.23137594 44.44373166 0.457984 53.87094282-3.25183606 20.06904383-7.91838337 30.9243059-20.74045793 33.18458379-39.20655669 8.21333119-66.76638427-25.40255865-132.45820948-29.26281678-139.72963486-0.3571983-0.67511909-0.54246659-1.0767816-0.54246657-1.07678161-5.57881029-12.09507984-4.60133268-26.03321281 2.6248869-37.30273622 7.16174583-11.13538848 19.47247905-17.78356969 32.93187762-17.78356969l128.8239796 0c38.17424002 0 53.74644257-14.35758103 53.74644257-49.55640641C804.65929153 330.37287023 770.77142828 229.68527417999996 752.56544566 175.59200887999998z"  horiz-adv-x="1024" />

    
    <glyph glyph-name="zanting" unicode="&#58905;" d="M512.01157266 754.78857422C307.55189469 754.78857422 141.21142578 588.4481053100001 141.21142578 383.98842734000004s166.34046891-370.77700156 370.80014688-370.77700156c204.43653263 0 370.77700156 166.34046891 370.77700156 370.77700156S716.44810531 754.78857422 512.01157266 754.78857422zM512.01157266 59.50068950000002C333.0804237 59.50068950000002 187.5006895 205.08042369999998 187.5006895 383.98842734000004S333.0804237 708.4993105 512.01157266 708.4993105c178.90800437 0 324.48773858-145.57973422 324.48773857-324.51088316S690.9195763 59.50068950000002 512.01157266 59.50068950000002zM679.34726055 412.82663905l-202.65439602 123.96264809-2.98565767 1.55069068c-1.71270285 0.74062846-17.35847362 7.19798028-33.9994641 7.19798026-28.79192181 0-47.42335026-19.14061025-47.42335026-48.71944967l0-235.28832693 1.24981023-3.63370702c4.35119088-12.79898139 18.95545349-34.43921212 45.89580489-34.43921212l0 0c8.56351347 0 17.42790813 2.314463 27.19494266 7.31370396l200.33993303 113.54756348 1.96729336 1.27295483c13.79420037 9.76703453 28.69934343 34.30034455 13.35445237 61.93503449L679.34726055 412.82663905zM444.6838384 271.48237205c-2.9162239-1.48125618-4.55949223-1.71270285-5.09181934-1.75899205-0.27773585 0.23144666-0.62490476 0.62490476-0.99521898 1.11094269l0 225.98418499c0 0.99521898 0.04628918 1.80528122 0.13886755 2.40704138 4.28175711 0.23144666 12.2897996-1.78213662 15.57633701-2.98565768l186.05969544-113.80215472L444.6838384 271.48237205z"  horiz-adv-x="1024" />

    
    <glyph glyph-name="mima" unicode="&#58914;" d="M716.48668271 463.5179144L375.98473392 463.5179144l0 55.56978287c0 75.72331604 61.64114007 137.36445612 137.44878085 137.36445612 75.80764077 0 137.44878085-61.72546481 137.44878085-137.53310478 0-10.28757761 8.26379133-18.55136892 18.55136893-18.55136892s18.55136892 8.26379133 18.55136893 18.55136892c0 96.29847125-78.33737219 174.63584344-174.55151871 174.63584346-46.63139612 0-90.48008661-18.12974688-123.45092962-51.10058992-32.97084219-32.97084219-51.1005899-76.73520877-51.10058991-123.36660488L338.88199606 463.5179144l-39.12652414 0c-22.76758933 0-40.98166095-18.21407163-40.98166095-40.89733622l0-281.72783825c0-22.76758933 18.29839636-41.57193164 40.98166095-41.57193165l416.64688687 0c22.76758933 0 41.48760772 18.80434231 41.48760773 41.57193164L757.8899657 422.62057736C757.97429043 445.30384278 739.25427203 463.5179144 716.48668271 463.5179144zM720.87155175 140.47111705999998c0-2.27675886-1.85513681-4.13189566-4.13189565-4.13189566L300.00844531 136.33922140000004c-2.27675886 0-4.13189566 1.85513681-4.13189566 4.13189566L295.87654883 422.28328006c0 2.27675886 1.85513681 4.13189566 4.13189566 4.13189567l416.64688687 0c2.27675886 0 4.13189566-1.85513681 4.13189566-4.13189567L720.78722784 140.47111705999998zM505.00107398 367.3880918c-20.99677725 0-37.94598276-16.9492055-37.94598277-37.94598276 0-13.82920257 7.42054807-25.971917 18.55136894-32.63354489L485.60646097 223.19335912999998c0-10.20325287 8.34811606-18.55136892 18.55136892-18.55136893s18.55136892 8.34811606 18.55136893 18.55136893l0 72.68763702c12.05838968 6.32433059 20.23785709 18.97299097 20.23785709 33.56111372C542.94705673 350.43888630000004 525.99785123 367.3880918 505.00107398 367.3880918z"  horiz-adv-x="1024" />

    
    <glyph glyph-name="41" unicode="&#59008;" d="M853.71875001 542.625V185.71874999c0-37.125-15.1875-70.875-39.65625001-94.92187499-24.46875001-24.46875001-58.21875001-39.65625001-94.921875-39.65625h-434.53125c-37.125 0-70.875 15.1875-94.921875 39.65625-24.46875001 24.46875001-39.65625001 58.21875001-39.65624999 94.92187501V580.59375001H267.3125v-94.50000002c0-24.890625 20.671875-45.5625 45.5625-45.5625 8.015625 0 15.609375 2.109375 22.359375 5.90625001-13.921875 8.015625-23.203125 22.78125001-23.20312501 39.65624999V628.265625c0 24.890625 20.671875 45.5625 45.5625 45.5625s45.5625-20.671875 45.5625-45.5625v-47.67187501h199.54687501v-94.49999998c0-24.890625 20.671875-45.5625 45.5625-45.5625 8.015625 0 15.609375 2.109375 22.359375 5.90624999-13.921875 8.015625-23.203125 22.78125001-23.203125 39.65625001V628.265625c0 24.890625 20.671875 45.5625 45.5625 45.5625s45.5625-20.671875 45.5625-45.5625v-47.67187501H853.71875001v-37.96874999z m-359.85937501-395.296875v221.0625h-42.1875c0-5.90625001-2.53125001-11.8125-7.171875-17.71875-4.640625-5.90625001-10.546875-9.28125001-17.71875001-9.28125v-32.0625h18.14062501v-162h48.9375z m77.203125 0v221.0625h-42.1875c0-5.90625001-2.53125001-11.8125-7.171875-17.71875-4.640625-5.90625001-10.546875-9.28125001-17.71875-9.28125v-32.0625h18.140625v-162H571.0625z m206.71874999 248.90625H226.390625V185.71874999c0-16.03125001 6.75-30.796875 17.296875-41.34374999 10.546875-10.546875 25.3125-17.296875 41.34375001-17.296875h434.53124999c16.03125001 0 30.796875 6.75 41.34375001 17.296875 10.546875 10.546875 17.296875 25.3125 17.29687499 41.34375001V396.234375z"  horiz-adv-x="1024" />

    
    <glyph glyph-name="fenxiang" unicode="&#58918;" d="M883.378758-128H102.988749A103.014348 103.014348 0 0 0 0-24.985652V755.378758C0 812.26193 47.846376 870.399501 104.703948 870.399501h416.025392v-52.351974H104.703948c-28.441586 0-52.377574-23.910388-52.377574-52.351974l-0.8448-790.681205c0-28.467186 23.091188-51.532774 51.507175-51.532774l790.681204 0.896c28.415986 0 52.351974 23.935988 52.351974 52.351974V449.945311H998.399501v-473.190163C998.399501-80.153624 940.26193-128 883.378758-128z m114.483143 737.151631a26.111987 26.111987 0 0 0-26.214387 26.188787l-0.793599 176.332712-577.612512-559.23172c-10.495995-9.958395-27.391986-9.958395-37.887981 0a24.755188 24.755188 0 0 0 0 36.095982L929.612335 844.492314l-166.271917-0.8704a26.111987 26.111987 0 0 0-26.188787 26.188787A26.111987 26.111987 0 0 0 763.340418 895.999488h233.907083C1012.095494 896.050688 1023.999488 884.658694 1023.999488 870.501901v-235.161483a26.163187 26.163187 0 0 0-26.137587-26.188787z"  horiz-adv-x="1024" />

    
    <glyph glyph-name="icon-test" unicode="&#58924;" d="M503.4 219.2L307.6 373v22l195.7 153.8 22.6-11v-307.5l-22.5-11.1zM338.9 384L498 259V509L338.9 384zM782.9 219.2L587.2 373v22l195.7 153.8 22.6-11v-307.5l-22.6-11.1zM618.5 384l159.1-125V509L618.5 384zM218.4 509.8h28v-251.6h-28zM512-63.3c-119.5 0-231.8 46.5-316.3 131S64.7 264.5 64.7 384s46.5 231.8 131 316.3 196.8 131 316.3 131 231.8-46.5 316.3-131 131-196.8 131-316.3-46.5-231.8-131-316.3-196.8-131-316.3-131z m0 866.7c-112 0-217.3-43.6-296.5-122.9C136.2 601.3 92.6 496 92.6 384s43.6-217.3 122.8-296.5C294.7 8.2 400-35.4 512-35.4s217.3 43.6 296.5 122.9C887.8 166.7 931.4 272 931.4 384s-43.6 217.3-122.8 296.5C729.3 759.8 624 803.4 512 803.4z"  horiz-adv-x="1024" />

    
    <glyph glyph-name="icon-test1" unicode="&#58925;" d="M399.9 510.1h28V258h-28zM582 510.1h28V258h-28zM512-64.2c-119.7 0-232.3 46.6-316.9 131.3C110.4 151.7 63.8 264.3 63.8 384c0 119.7 46.6 232.3 131.3 316.9C279.7 785.6 392.3 832.2 512 832.2c119.7 0 232.3-46.6 316.9-131.3 84.7-84.6 131.3-197.2 131.3-316.9 0-119.7-46.6-232.2-131.3-316.9-84.6-84.7-197.2-131.3-316.9-131.3z m0 868.4c-112.2 0-217.7-43.7-297.1-123.1C135.5 601.7 91.8 496.2 91.8 384c0-112.2 43.7-217.7 123.1-297.1 79.4-79.4 184.9-123.1 297.1-123.1s217.7 43.7 297.1 123.1c79.4 79.4 123.1 184.9 123.1 297.1 0 112.2-43.7 217.7-123.1 297.1C729.7 760.5 624.2 804.2 512 804.2z"  horiz-adv-x="1024" />

    
    <glyph glyph-name="icon-test2" unicode="&#58928;" d="M450.6 218.9l-22.7 11V538.1l22.7 11L646.7 395v-22L450.6 218.9z m5.4 290.3v-250.5L615.4 384 456 509.2zM512-64.2c-119.7 0-232.3 46.6-316.9 131.3C110.4 151.7 63.8 264.3 63.8 384c0 119.7 46.6 232.3 131.3 316.9C279.7 785.6 392.3 832.2 512 832.2c119.7 0 232.3-46.6 316.9-131.3 84.7-84.6 131.3-197.2 131.3-316.9 0-119.7-46.6-232.2-131.3-316.9-84.6-84.7-197.2-131.3-316.9-131.3z m0 868.4c-112.2 0-217.7-43.7-297.1-123.1C135.5 601.7 91.8 496.2 91.8 384c0-112.2 43.7-217.7 123.1-297.1 79.4-79.4 184.9-123.1 297.1-123.1s217.7 43.7 297.1 123.1c79.4 79.4 123.1 184.9 123.1 297.1 0 112.2-43.7 217.7-123.1 297.1C729.7 760.5 624.2 804.2 512 804.2z"  horiz-adv-x="1024" />

    
    <glyph glyph-name="icon-test3" unicode="&#58929;" d="M447.4 219.1L251.5 373v22l195.9 153.9 22.6-11v-307.8l-22.6-11zM282.8 384L442 258.9V509.1L282.8 384zM727.2 219.1L531.3 373v22l195.9 153.9 22.6-11v-307.8l-22.6-11zM562.6 384l159.3-125.1V509.1L562.6 384zM512-63.8c-119.6 0-232 46.6-316.6 131.2C110.8 152 64.2 264.4 64.2 384c0 119.6 46.6 232 131.2 316.6C280 785.2 392.4 831.8 512 831.8c119.6 0 232-46.6 316.6-131.2 84.6-84.6 131.2-197 131.2-316.6 0-119.6-46.6-232-131.2-316.6-84.6-84.6-197-131.2-316.6-131.2z m0 867.6c-112.1 0-217.5-43.7-296.8-123-79.3-79.3-123-184.7-123-296.8 0-112.1 43.7-217.5 123-296.8 79.3-79.3 184.7-123 296.8-123s217.5 43.7 296.8 123c79.3 79.3 123 184.7 123 296.8 0 112.1-43.7 217.5-123 296.8-79.3 79.3-184.7 123-296.8 123z"  horiz-adv-x="1024" />

    
    <glyph glyph-name="icon-test4" unicode="&#58930;" d="M666 230H358V538h308v-308z m-280 28h252V510H386v-252zM512-64.1c-119.7 0-232.2 46.6-316.8 131.3C110.6 151.8 64 264.3 64 384c0 119.7 46.6 232.2 131.2 316.8C279.8 785.4 392.3 832.1 512 832.1c119.7 0 232.2-46.6 316.8-131.3C913.4 616.2 960 503.7 960 384c0-119.7-46.6-232.2-131.2-316.8-84.6-84.6-197.1-131.3-316.8-131.3z m0 868.2c-112.2 0-217.7-43.7-297-123C135.7 601.7 92 496.2 92 384c0-112.2 43.7-217.7 123-297 79.3-79.3 184.8-123 297-123s217.7 43.7 297 123c79.3 79.3 123 184.8 123 297 0 112.2-43.7 217.7-123 297-79.3 79.3-184.8 123.1-297 123.1z"  horiz-adv-x="1024" />

    
    <glyph glyph-name="icon-test5" unicode="&#58933;" d="M665.8 342.1H358.2l-11 22.6L501 560.4h22l153.8-195.7-11-22.6zM387 370h250L512 529.1 387 370zM372.2 286.1h279.6v-28H372.2zM512-63.3c-119.5 0-231.8 46.5-316.3 131S64.7 264.5 64.7 384s46.5 231.8 131 316.3 196.8 131 316.3 131 231.8-46.5 316.3-131 131-196.8 131-316.3-46.5-231.8-131-316.3-196.8-131-316.3-131z m0 866.7c-112 0-217.3-43.6-296.5-122.9C136.2 601.3 92.6 496 92.6 384s43.6-217.3 122.8-296.5C294.7 8.3 400-35.4 512-35.4s217.3 43.6 296.5 122.9C887.8 166.7 931.4 272 931.4 384s-43.6 217.3-122.8 296.5C729.3 759.7 624 803.4 512 803.4z"  horiz-adv-x="1024" />

    
    <glyph glyph-name="icon-test6" unicode="&#58936;" d="M520.6 219.8l-22.5 11V537.3l22.5 11L715.7 395v-22L520.6 219.8z m5.3 288.8v-249.2L684.5 384 525.9 508.6zM241.9 219.8l-22.5 11V537.3l22.5 11L437 395v-22L241.9 219.8z m5.3 288.8v-249.2L405.8 384 247.2 508.6zM776.8 509.4h27.9v-250.8h-27.9zM512-61.9c-119.1 0-231.1 46.4-315.3 130.6C112.5 152.9 66.1 264.9 66.1 384c0 119.1 46.4 231.1 130.6 315.3C280.9 783.5 392.9 829.9 512 829.9c119.1 0 231.1-46.4 315.3-130.6 84.2-84.2 130.6-196.2 130.6-315.3 0-119.1-46.4-231.1-130.6-315.3-84.2-84.2-196.2-130.6-315.3-130.6z m0 864c-111.7 0-216.6-43.5-295.6-122.5-79-79-122.5-183.9-122.5-295.6 0-111.7 43.5-216.6 122.5-295.6 79-79 183.9-122.5 295.6-122.5 111.7 0 216.6 43.5 295.6 122.5 79 79 122.5 183.9 122.5 295.6 0 111.7-43.5 216.6-122.5 295.6-79 79-183.9 122.5-295.6 122.5z"  horiz-adv-x="1024" />

    
    <glyph glyph-name="icon-test7" unicode="&#58937;" d="M576.7 219L554 230V538l22.7 11 196-154v-22l-196-154z m5.3 290.2v-250.4L741.4 384 582 509.2zM296.6 219L274 230V538l22.7 11 196-154v-22L296.6 219z m5.4 290.2v-250.4L461.3 384 302 509.2zM512-64.1c-119.7 0-232.2 46.6-316.8 131.3C110.5 151.8 63.9 264.3 63.9 384c0 119.7 46.6 232.2 131.2 316.8C279.8 785.4 392.3 832.1 512 832.1c119.7 0 232.2-46.6 316.8-131.3 84.6-84.6 131.3-197.1 131.3-316.8 0-119.7-46.6-232.2-131.3-316.8-84.6-84.6-197.1-131.3-316.8-131.3z m0 868.2c-112.2 0-217.7-43.7-297-123-79.3-79.3-123-184.8-123-297 0-112.2 43.7-217.7 123-297 79.3-79.3 184.8-123 297-123 112.2 0 217.7 43.7 297 123 79.3 79.3 123 184.8 123 297 0 112.2-43.7 217.7-123 297-79.3 79.2-184.8 123-297 123z"  horiz-adv-x="1024" />

    
    <glyph glyph-name="icon-test8" unicode="&#58938;" d="M863.2 135.3h-717V501.1h29.3v-336.6h687.7zM877.8 266.9h-29.3V603.5H160.8v29.2h717zM873.5 256.6h-20.7L750.4 359l20.7 20.7 92.1-92.1 92 92.1 20.7-20.7zM252.9 388.3l-92.1 92.1-92-92.1L48.1 409l102.4 102.4h20.7L273.6 409z"  horiz-adv-x="1024" />

    
    <glyph glyph-name="icon-test9" unicode="&#58939;" d="M280.7 144.8H63.8v28.1H269l450.3 450.3h230.9v-28.1H730.9zM950.2 144.8H719.3L574.5 289.6l19.9 19.9 136.5-136.6h219.3zM405.6 458.5L269 595.1H63.8v28.1h216.9l144.8-144.8zM861.7 500.7l-19.9 19.9 88.5 88.5-88.5 88.6 19.9 19.9 98.5-98.5v-19.9zM861.7 50.4l-19.9 19.9 88.5 88.6-88.5 88.5 19.9 19.9 98.5-98.5v-19.9z"  horiz-adv-x="1024" />

    
    <glyph glyph-name="icon-test10" unicode="&#58940;" d="M555.3-62L288.2 205.1H115V562.9h173.2L555.3 830v-892zM142.5 232.7h157l228.2-228.2v759L299.6 535.3h-157v-302.6zM641.897 498.11l19.445 19.445L908.97 269.928l-19.446-19.445zM641.826 269.928l247.627 247.627 19.445-19.445L661.27 250.483z"  horiz-adv-x="1024" />

    
    <glyph glyph-name="icon-test11" unicode="&#58941;" d="M603.699-65.5l-269.2 269.2h-174.5v360.6h174.5l269.2 269.2v-899zM187.699 231.5h158.3l230-230v765l-230-230h-158.3v-305zM700.799 231.5v27.7c68.8 0 124.8 56 124.8 124.8s-56 124.8-124.8 124.8v27.7c84.1 0 152.5-68.4 152.5-152.5s-68.4-152.5-152.5-152.5z"  horiz-adv-x="1024" />

    
    <glyph glyph-name="icon-test12" unicode="&#58942;" d="M539.7-65.5L270.5 203.7H96V564.3h174.5L539.7 833.5v-899z m-416 297H282l230-230v765l-230-230H123.7v-305zM636.8 231.5v27.7c68.8 0 124.8 56 124.8 124.8s-56 124.8-124.8 124.8v27.7c84.1 0 152.5-68.4 152.5-152.5s-68.4-152.5-152.5-152.5zM636.8 92.8v27.7c145.3 0 263.5 118.2 263.5 263.5S782.1 647.5 636.8 647.5v27.7C797.4 675.2 928 544.6 928 384S797.4 92.8 636.8 92.8z"  horiz-adv-x="1024" />

    
    <glyph glyph-name="icon-test13" unicode="&#58943;" d="M317.3-62.8c-69 0-125.2 56.2-125.2 125.2s56.2 125.2 125.2 125.2 125.2-56.2 125.2-125.2-56.2-125.2-125.2-125.2z m0 222.6c-53.7 0-97.4-43.7-97.4-97.4s43.7-97.4 97.4-97.4 97.4 43.7 97.4 97.4c-0.1 53.7-43.8 97.4-97.4 97.4zM706.7 20.7c-69 0-125.2 56.2-125.2 125.2s56.2 125.2 125.2 125.2 125.2-56.2 125.2-125.2-56.1-125.2-125.2-125.2z m0 222.5c-53.7 0-97.4-43.7-97.4-97.4s43.7-97.4 97.4-97.4 97.4 43.7 97.4 97.4c0 53.8-43.7 97.4-97.4 97.4zM442.4 62.4h-27.8v679l417.3 89.4v-684.9h-27.8V796.4l-361.7-77.5zM431.5 493.9l-5.9 27.3 389.5 83.4 5.9-27.2z"  horiz-adv-x="1024" />

    
    <glyph glyph-name="icon-test14" unicode="&#58944;" d="M525.9-64.1c-69.1 0-125.3 56.2-125.3 125.3s56.2 125.3 125.3 125.3 125.3-56.2 125.3-125.3S595-64.1 525.9-64.1z m0 222.9c-53.8 0-97.5-43.7-97.5-97.5s43.7-97.5 97.5-97.5c53.7 0 97.5 43.7 97.5 97.5s-43.7 97.5-97.5 97.5zM651.3 61.3h-27.9V740.1L929.8 832v-224l-278.5-83.6v-463.1z m0 658.1v-165.9L902 628.7V794.6l-250.7-75.2zM94.2 618.4h473.5v-27.9H94.2zM94.2 479.1h473.5v-27.9H94.2zM94.2 339.8h473.5v-27.9H94.2z"  horiz-adv-x="1024" />

    
    <glyph glyph-name="icon-test15" unicode="&#58945;" d="M253.9 68.5h-43c-87 0-157.8 70.8-157.8 157.8S123.8 384 210.8 384h43v-315.5z m-43.1 286.8c-71.2 0-129.1-57.9-129.1-129.1s57.9-129.1 129.1-129.1h14.3V355.3h-14.3zM813.2 68.5h-43V384h43c87 0 157.8-70.8 157.8-157.8s-70.8-157.7-157.8-157.7z m-14.4 28.7h14.3c71.2 0 129.1 57.9 129.1 129.1s-57.9 129.1-129.1 129.1h-14.3v-258.2zM253.9 326.6h-28.7V455.7c0 2.4 3.3 243.8 286.8 243.8s286.8-241.4 286.8-243.8v-86h-28.7v86c0 8.8-3.7 215.1-258.1 215.1-255.2 0-258.1-206.3-258.1-215.1v-129.1z"  horiz-adv-x="1024" />

    
    <glyph glyph-name="icon-test16" unicode="&#58946;" d="M372.7-64.2c-69.1 0-125.4 56.2-125.4 125.4s56.3 125.4 125.4 125.4 125.4-56.2 125.4-125.4-56.3-125.4-125.4-125.4z m0 222.9c-53.8 0-97.5-43.8-97.5-97.5s43.7-97.5 97.5-97.5 97.5 43.8 97.5 97.5-43.7 97.5-97.5 97.5zM498.1 61.2h-27.9V740.3l306.5 92v-224.1l-278.6-83.6v-463.4z m0 658.3v-166l250.8 75.2v166l-250.8-75.2z"  horiz-adv-x="1024" />

    
    <glyph glyph-name="icon-test17" unicode="&#58947;" d="M301.6-36.9h420.9V-65H301.6zM498 243.7h28.1v-280.6H498zM512 229.7c-120.4 0-238.5 118.1-238.5 238.5h28.1c0-104.2 106.2-210.4 210.4-210.4S722.4 364 722.4 468.2h28.1c0-120.4-118.1-238.5-238.5-238.5zM512 327.9c-69.6 0-126.3 56.6-126.3 126.3V706.7C385.7 776.3 442.4 833 512 833s126.3-56.6 126.3-126.3v-252.5c0-69.7-56.7-126.3-126.3-126.3z m0 477c-54.2 0-98.2-44.1-98.2-98.2v-252.5c0-54.2 44.1-98.2 98.2-98.2s98.2 44.1 98.2 98.2V706.7c0 54.1-44.1 98.2-98.2 98.2zM399.8 664.6h70.1v-28.1h-70.1zM399.8 524.3h70.1v-28.1h-70.1zM554.1 664.6h70.1v-28.1h-70.1zM554.1 524.3h70.1v-28.1h-70.1z"  horiz-adv-x="1024" />

    
    <glyph glyph-name="icon-test18" unicode="&#58948;" d="M512-64.2C264.9-64.2 63.8 136.9 63.8 384S264.9 832.2 512 832.2 960.2 631.1 960.2 384 759.1-64.2 512-64.2z m0 868.4C280.3 804.2 91.8 615.7 91.8 384S280.3-36.2 512-36.2 932.2 152.3 932.2 384 743.7 804.2 512 804.2zM512 257.9c-69.5 0-126.1 56.5-126.1 126.1 0 69.5 56.5 126.1 126.1 126.1 69.5 0 126.1-56.5 126.1-126.1 0-69.5-56.6-126.1-126.1-126.1z m0 224.1c-54.1 0-98-44-98-98 0-54.1 44-98 98-98 54.1 0 98 44 98 98 0 54.1-43.9 98-98 98zM512 145.9c-131.3 0-238.1 106.8-238.1 238.1h28c0-115.8 94.2-210.1 210.1-210.1v-28zM750.1 384h-28c0 115.8-94.2 210.1-210.1 210.1v28c131.3 0 238.1-106.8 238.1-238.1zM512 47.9c-185.4 0-336.2 150.8-336.2 336.1h28c0-169.9 138.2-308.1 308.2-308.1v-28zM848.1 384h-28c0 169.9-138.2 308.1-308.1 308.1v28c185.3 0 336.1-150.8 336.1-336.1z"  horiz-adv-x="1024" />

    
    <glyph glyph-name="icon-test19" unicode="&#58949;" d="M875.4 48.5H148.6v75.7l97.8 97.8V481.8c0 146.4 119.1 265.6 265.6 265.6s265.6-119.1 265.6-265.6V222l97.8-97.8v-75.7z m-698.9 28h671v36.1l-97.8 97.8V481.8c0 131-106.6 237.6-237.6 237.6S274.4 612.9 274.4 481.8v-271.4l-97.8-97.8v-36.1zM260.4 272.2h503.2v-28H260.4zM260.4 356h503.2v-28H260.4zM512-63.3c-69.4 0-125.8 56.4-125.8 125.8h28c0-53.9 43.9-97.8 97.8-97.8s97.8 43.9 97.8 97.8h28c0-69.4-56.4-125.8-125.8-125.8zM581.9 733.5h-28V803.4h-83.8v-69.9h-28V831.3h139.8z"  horiz-adv-x="1024" />

    
    <glyph glyph-name="pinglun" unicode="&#58883;" d="M335.79714966 473.31802368c-35.89645386-0.32546997-46.88497925-13.99438477-46.88497925-31.25665283 0-17.26391602 12.45272828-31.2574768 46.88497925-31.25747681 34.43389893 0 46.88827515 13.99438477 46.88827515 31.25747681s-10.99017334 31.58377075-46.88827515 31.25665283z m187.54815674 0c-35.8981018-0.32546997-46.88827515-13.99438477-46.88827515-31.25665283 0-17.26391602 12.45437622-31.2574768 46.88827515-31.25747681 34.43225098 0 46.88497925 13.99438477 46.88497925 31.25747681 0.00082398 17.26309204-10.98852539 31.58377075-46.88497925 31.25665283z m117.21533203 208.91876221H406.12832641c-142.42318726 0-257.87686157-115.45532227-257.87686157-257.87686157 0-92.70455933 48.91690063-173.98306274 122.34622193-219.43267823 31.40744018-19.44085693 18.31365967-147.84823609 18.31365966-147.84823608s154.03875732 109.40405273 164.10195924 109.40405273h187.54733276c142.42318726 0 257.87686157 115.45532227 257.87686157 257.87686158S782.98382568 682.23678589 640.56063843 682.23678589z m0.31887818-482.54260254H446.95462036c-8.83383179 0-126.78662109-80.09857177-126.78662109-80.09857178s-5.2767334 97.48526001-33.29269409 113.73651124c-58.74938965 34.07876587-106.87362671 119.83804321-107.3671875 192.00421141-0.79678344 116.49765015 109.44772339 224.82806396 226.30050659 225.64215089h235.07171631c113.60220337 0 226.30215454-112.40496826 226.30215454-225.64215089-0.00082398-118.92755127-111.88833618-227.26950073-226.30297851-225.64215087z m70.01147461 273.62384033c-35.89645386-0.32546997-46.88497925-13.99438477-46.88497926-31.25665283 0-17.26391602 12.45272828-31.2574768 46.88497926-31.25747681 34.43389893 0 46.88662719 13.99438477 46.88662719 31.25747681s-10.98852539 31.58377075-46.88662719 31.25665283z"  horiz-adv-x="1024" />

    
    <glyph glyph-name="paihangbang" unicode="&#59266;" d="M221.9609375 304.8984375c-15.8203125 0-26.3671875-10.546875-26.3671875-26.3671875v-105.46875c0-15.8203125 10.546875-26.3671875 26.3671875-26.3671875h52.734375c15.8203125 0 26.3671875 10.546875 26.3671875 26.3671875v105.46875c0 15.8203125-10.546875 26.3671875-26.3671875 26.3671875h-52.734375z m0 52.734375h52.734375c44.82421875 0 79.1015625-34.27734375 79.1015625-79.1015625v-105.46875c0-44.82421875-34.27734375-79.1015625-79.1015625-79.1015625h-52.734375c-44.82421875 0-79.1015625 34.27734375-79.1015625 79.1015625v105.46875c0 44.82421875 34.27734375 79.1015625 79.1015625 79.1015625z m263.671875 263.671875c-15.8203125 0-26.3671875-10.546875-26.3671875-26.3671875v-421.875c0-15.8203125 10.546875-26.3671875 26.3671875-26.3671875h52.734375c15.8203125 0 26.3671875 10.546875 26.3671875 26.3671875v421.875c0 15.8203125-10.546875 26.3671875-26.3671875 26.3671875h-52.734375z m0 52.734375h52.734375c44.82421875 0 79.1015625-34.27734375 79.1015625-79.1015625v-421.875c0-44.82421875-34.27734375-79.1015625-79.1015625-79.1015625h-52.734375c-44.82421875 0-79.1015625 34.27734375-79.1015625 79.1015625v421.875c0 44.82421875 34.27734375 79.1015625 79.1015625 79.1015625z m263.671875-263.671875c-15.8203125 0-26.3671875-10.546875-26.3671875-26.3671875v-210.9375c0-15.8203125 10.546875-26.3671875 26.3671875-26.3671875h52.734375c15.8203125 0 26.3671875 10.546875 26.3671875 26.3671875v210.9375c0 15.8203125-10.546875 26.3671875-26.3671875 26.3671875h-52.734375z m0 52.734375h52.734375c44.82421875 0 79.1015625-34.27734375 79.1015625-79.1015625v-210.9375c0-44.82421875-34.27734375-79.1015625-79.1015625-79.1015625h-52.734375c-44.82421875 0-79.1015625 34.27734375-79.1015625 79.1015625v210.9375c0 44.82421875 34.27734375 79.1015625 79.1015625 79.1015625z"  horiz-adv-x="1024" />

    
    <glyph glyph-name="fanhui" unicode="&#58886;" d="M843.81363905 399.80064927H216.52785492L429.83662264 627.33000183c6.32025985 6.32025985 6.32025985 15.80064927 0 22.12090913-6.32025985 6.32025985-15.80064927 6.32025985-22.12090914 0L169.12590638 395.06045457c-6.32025985-6.32025985-6.32025985-15.80064927 0-22.12090914l238.58980712-254.3904564c6.32025985-6.32025985 15.80064927-6.32025985 22.12090913 1e-8 6.32025985 6.32025985 6.32025985 15.80064927 0 22.12090913L216.52785492 368.19935073H843.81363905c9.48038943 0 15.80064927 6.32025985 15.80064928 15.80064927s-6.32025985 15.80064927-15.80064927 15.80064927z"  horiz-adv-x="1024" />

    
    <glyph glyph-name="pinglun2" unicode="&#58885;" d="M850.88 799.584H174.575c-60.681 0-110.05-49.367-110.05-110.05v-446.2c0-60.68 49.368-110.05 110.05-110.05h90.308L396.936-35.13a20.008 20.008 0 0 1 31.494 0l132.052 168.415H850.88c60.681 0 110.05 49.367 110.05 110.05v446.2c0 60.68-49.368 110.05-110.05 110.05z m70.031-556.25c0-38.614-31.416-70.03-70.03-70.03H550.743A20.007 20.007 0 0 1 535 165.64L412.683 9.644 290.367 165.64a20.004 20.004 0 0 1-15.745 7.663H174.576c-38.614 0-70.03 31.417-70.03 70.031v446.2c0 38.615 31.416 70.032 70.03 70.032h676.303c38.615 0 70.031-31.417 70.031-70.031v-446.2zM272.621 551.473c-44.132 0-80.036-35.903-80.036-80.036 0-44.132 35.904-80.036 80.036-80.036s80.036 35.904 80.036 80.036c-0.001 44.133-35.905 80.036-80.036 80.036z m0-120.055c-22.066 0-40.017 17.952-40.017 40.018s17.953 40.018 40.017 40.018c22.066 0 40.017-17.952 40.017-40.018 0-22.065-17.951-40.018-40.017-40.018zM512.728 551.473c-44.133 0-80.036-35.903-80.036-80.036 0-44.132 35.903-80.036 80.036-80.036 44.132 0 80.035 35.904 80.035 80.036 0 44.133-35.903 80.036-80.035 80.036z m0-120.055c-22.066 0-40.018 17.952-40.018 40.018s17.952 40.018 40.018 40.018c22.065 0 40.017-17.952 40.017-40.018 0.001-22.065-17.952-40.018-40.017-40.018zM752.836 551.473c-44.131 0-80.036-35.903-80.036-80.036 0-44.132 35.905-80.036 80.036-80.036s80.036 35.904 80.036 80.036c0 44.133-35.905 80.036-80.036 80.036z m0-120.055c-22.066 0-40.017 17.952-40.017 40.018s17.952 40.018 40.017 40.018 40.018-17.952 40.018-40.018c0-22.065-17.951-40.018-40.018-40.018z"  horiz-adv-x="1024" />

    
    <glyph glyph-name="fenxiang1" unicode="&#58969;" d="M889.344 352.256v-240.64c0-57.856-47.104-104.96-104.96-104.96H239.616c-57.856 0-104.96 47.104-104.96 104.96V656.384c0 57.856 47.104 104.96 104.96 104.96h165.376c11.776 0 20.992 9.216 20.992 20.992s-9.216 20.992-20.992 20.992H239.616C158.72 803.328 92.672 737.28 92.672 656.384v-544.768c0-80.896 65.536-146.944 146.944-146.944h544.768c80.896 0 146.944 65.536 146.944 146.944v241.152c0 12.8-11.776 23.04-25.088 20.48-10.24-1.536-16.896-11.264-16.896-20.992zM878.592 698.368c-289.28 0-523.776-234.496-523.776-523.776 0-11.776 9.216-20.992 20.992-20.992s20.992 9.216 20.992 20.992c0 266.24 215.552 481.792 481.792 481.792 11.776 0 20.992 9.216 20.992 20.992s-9.216 20.992-20.992 20.992zM682.496 752.128l209.408-83.968c10.752-4.096 23.04 1.536 26.624 12.8 3.584 10.24-1.024 22.016-11.264 26.112l-209.408 83.968c-10.752 4.096-23.04-1.536-26.624-12.8-4.096-10.24 1.024-21.504 11.264-26.112zM755.2 517.632l159.232 155.136c8.192 8.192 8.704 21.504 0.512 29.696-8.192 8.192-21.504 8.704-29.696 0.512l-0.512-0.512L725.504 547.84c-8.192-8.192-8.704-20.992-0.512-29.696 8.192-8.192 21.504-8.704 30.208-0.512-0.512 0-0.512 0 0 0z"  horiz-adv-x="1024" />

    
    <glyph glyph-name="yinle-yuanwenjian" unicode="&#58900;" d="M763.82723999 429.85186958V381.68257141000004h-26.79024697v48.16929817c0 124.14851189-100.75252534 224.79057312-225.03699302 224.79057313s-225.03699303-100.64206123-225.03699303-224.79057313V381.68257141000004H260.17276001v48.16929817C260.17276001 568.77630615 372.91952324 681.40333557 512 681.40333557s251.82723999-112.62702942 251.82723999-251.55146599zM213.05171203 370.09542847h47.12104798v-193.11904907h-47.12104798a47.12104797 47.12104797 0 0 0-47.12104797 47.12104797V322.97438049000004a47.12104797 47.12104797 0 0 0 47.12104797 47.12104798zM274.84208298 408.71923828a47.12104797 47.12104797 0 0 0 47.12104797-47.12104797v-176.12457276a47.12104797 47.12104797 0 0 0-94.24209594 0V361.59819030999995a47.12104797 47.12104797 0 0 0 47.12104797 47.12104797zM763.82723999 370.09542847h47.12104798a47.12104797 47.12104797 0 0 0 47.12104797-47.12104798v-98.87695312a47.12104797 47.12104797 0 0 0-47.12104797-47.12104797h-47.12104798V370.09542847zM702.02914429 408.71923828l94.24209594 0 0-270.3666687-94.24209594 0 0 270.3666687Z"  horiz-adv-x="1024" />

    
    <glyph glyph-name="zhiboguanli" unicode="&#58913;" d="M746.9881288 96.91826114000003H277.07154314c-32.46153938 0.05967195-58.89621207 26.43467269-58.89621206 58.89621206V500.41996934c0.05967195 32.46153938 26.43467269 58.89621207 58.89621206 58.89621207h469.91658566c32.46153938-0.05967195 58.89621207-26.43467269 58.89621206-58.89621207v-344.60549615c-0.05967195-32.46153938-26.49434464-58.89621207-58.89621206-58.89621205z m-0.05967195 438.52914133H277.0118712c-19.27403902 0-35.02743311-15.75339411-35.02743312-35.08710507v-344.54582421c0-19.27403902 15.75339411-35.02743311 35.08710507-35.0274331h469.8569137c19.27403902 0 35.02743311 15.75339411 35.02743311 35.08710506V500.41996934c0 19.27403902-15.69372217 35.02743311-35.02743311 35.02743313zM464.97850546 222.22935064c-4.59473996 0-9.18947989 1.133767-13.36651622 3.46097296-8.77177627 4.83342774-14.20192347 14.14225153-14.20192347 24.16713868V406.43665222c0 10.02488716 5.43014722 19.27403902 14.20192347 24.16713871 8.77177627 4.83342774 19.5127268 4.59473996 28.04581528-0.77573534l125.3110895-78.28959497c8.11538484-5.07211553 12.9488126-13.8438918 12.9488126-23.39140336 0-9.54751158-4.83342774-18.31928785-12.9488126-23.39140338L479.65780452 226.4660589c-4.47539605-2.86425348-9.54751158-4.23670827-14.67929906-4.23670826z m0 187.90696232c-0.59671947 0-1.25311089-0.17901585-1.79015842-0.47737559-1.19343895-0.65639142-1.90950232-1.90950232-1.90950232-3.2819571V249.73811837999995c0-1.37245479 0.71606337-2.62556569 1.90950232-3.2819571 1.19343895-0.65639142 2.62556569-0.59671947 3.75933269 0.1193439l125.31108949 78.28959496c1.07409506 0.65639142 1.73048647 1.84983038 1.73048648 3.16261322 0 1.31278283-0.65639142 2.44654984-1.73048647 3.16261321l-125.31108951 78.28959496c-0.53704752 0.47737558-1.25311089 0.65639142-1.96917426 0.65639143zM576.44570318 539.56476683l3.2819571-2.80458152c4.95277163-4.29638021 12.53110895-3.69966073 16.82748916 1.25311088L707.24661184 666.36765502c4.29638021 4.95277163 3.69966073 12.53110895-1.25311089 16.82748916l-3.2819571 2.80458154c-4.95277163 4.29638021-12.53110895 3.69966073-16.82748917-1.2531109L575.19259228 556.39225599c-4.29638021-4.95277163-3.75933269-12.53110895 1.2531109-16.82748917zM455.66968167 541.7726288900001l2.68523763 3.40130099c4.05769242 5.13178748 3.22228515 12.71012479-1.90950231 16.76781722L323.73500601 667.44175007c-5.13178748 4.05769242-12.71012479 3.22228515-16.76781722-1.90950232l-2.68523763-3.401301c-4.05769242-5.13178748-3.22228515-12.71012479 1.90950232-16.76781721l132.65073903-105.55967493c5.19145943-4.05769242 12.71012479-3.16261321 16.82748916 1.96917428z"  horiz-adv-x="1024" />

    
    <glyph glyph-name="kongjianweixuan" unicode="&#60400;" d="M772.71071625 688.16250229H251.28928375c-23.96366 0-43.45178603-19.48812604-43.45178604-43.45178604v-521.42143249c0-23.96366 19.48812604-43.45178603 43.45178605-43.45178605h521.42143249c23.96366 0 43.45178603 19.48812604 43.45178604 43.45178605V644.71071625c0 23.96366-19.48812604 43.45178603-43.45178604 43.45178604zM251.28928375 123.28928374999998V644.71071625h521.42143249l0.0434518-521.42143249H251.28928375z"  horiz-adv-x="1024" />

    
    <glyph glyph-name="kongjianyixuan" unicode="&#60401;" d="M772.71071625 688.16250229H251.28928375c-23.96366 0-43.45178603-19.48812604-43.45178604-43.45178604v-521.42143249c0-23.96366 19.48812604-43.45178603 43.45178605-43.45178605h521.42143249c23.96366 0 43.45178603 19.48812604 43.45178604 43.45178605V644.71071625c0 23.96366-19.48812604 43.45178603-43.45178604 43.45178604zM251.28928375 123.28928374999998V644.71071625h521.42143249l0.0434518-521.42143249H251.28928375zM669.94724227 522.48084212l-210.71943642-224.92817045-107.06520081 89.94519711a21.72589302 21.72589302 0 0 1-27.96122431-33.28406811l122.81647325-103.19799185a21.72589302 21.72589302 0 0 1 29.82965111 1.78152323L701.66704607 492.78154635a21.72589302 21.72589302 0 1 1-31.71980381 29.69929577z"  horiz-adv-x="1024" />

    
    <glyph glyph-name="compass" unicode="&#59261;" d="M512 730.06933594C320.88938904 730.06933594 165.93066406 575.11061096 165.93066406 384s154.95872497-346.06933594 346.06933594-346.06933594 346.06933594 154.95872497 346.06933594 346.06933594S703.11061096 730.06933594 512 730.06933594z m0-633.43048096c-158.66661072 0-287.36114502 128.6945343-287.36114502 287.36114502s128.6945343 287.36114502 287.36114502 287.36114502 287.36114502-128.6945343 287.36114502-287.36114502-128.6945343-287.36114502-287.36114502-287.36114502zM665.25927734 550.93210602c-6.17980958 2.39467621-12.90035248 2.24018097-18.92566681-0.3862381L436.99256133 458.93019104 345.45413208 249.58914185000003c-2.7809143-6.33430481-2.7809143-13.51833344 0-19.85263826 2.62641907-6.02531433 7.49301911-10.73741914 13.67282868-13.13209532 2.93540955-1.1587143 5.94806672-1.69944763 9.03797149-1.69944765 3.39889526 0 6.72054292 0.69522858 9.88769531 2.08568574l209.3410492 91.61567689 91.53842926 209.34104919c2.7809143 6.33430481 2.7809143 13.51833344-1e-8 19.85263824-2.70366669 6.10256196-7.57026672 10.73741914-13.67282867 13.13209533zM562.05645752 366.6965332l20.23887634-20.23887634-32.75299072-32.75299072-20.23887634 20.23887634L410.03314209 281.72415161000004 462.17528533 400.99447632 442.47714234 420.76986695l32.75299071 32.75299071 19.69814302-19.698143L614.27584839 485.96685791l-52.21939087-119.27032471zM475.23013305 453.52285766L442.47714234 420.76986695l19.698143-19.77539063 67.12818146-67.05093384 20.23887634-20.23887634 32.75299072 32.75299072-20.23887634 20.23887634-67.05093384 67.12818147z"  horiz-adv-x="1024" />

    
    <glyph glyph-name="liebiao" unicode="&#58890;" d="M814.25 595.03125001c0-13.21875001-10.6875-24-24-24.00000002H233.65624999c-13.21875001 0-24 10.6875-23.99999998 24 0 13.21875001 10.6875 24 24 24h556.59374999c13.3125 0 24-10.6875 24-24zM814.25 384c0-13.21875001-10.6875-24-24-24H233.65624999c-13.21875001 0-24 10.6875-23.99999998 24 0 13.21875001 10.6875 24 24 24h556.59374999c13.3125 0 24-10.78125001 24-24zM814.25 172.96874999c0-13.21875001-10.6875-24-24-23.99999998H233.65624999c-13.21875001 0-24 10.6875-23.99999998 24 0 13.21875001 10.6875 24 24 24h556.59374999c13.3125-0.09375001 24-10.78125001 24-24z"  horiz-adv-x="1024" />

    
    <glyph glyph-name="paihangbang--" unicode="&#58896;" d="M564.734375 623.4305420000001v-474.60937501H459.265625v474.60937501h105.46875m52.734375 52.73437499H406.53125v-580.078125h210.9375v580.078125zM802.0390625 438.8602295v-290.03906251H696.5703125v290.03906251h105.46875m52.734375 52.73437499H643.8359375v-395.50781249h210.9375v395.50781249zM327.4296875 280.65710449000005v-131.83593749H221.9609375v131.83593749h105.46875m52.734375 52.73437501H169.2265625v-237.30468751h210.9375v237.30468751z"  horiz-adv-x="1024" />

    
    <glyph glyph-name="zanting1" unicode="&#58983;" d="M512.07241965 754.6437349299999C307.63176631 754.6437349299999 141.35626507 588.36823369 141.35626507 383.92758034999997S307.63176631 13.211425780000013 512.07241965 13.211425780000013 882.78857422 179.48692702999995 882.78857422 383.92758034999997 716.51307297 754.6437349299999 512.07241965 754.6437349299999z m0-693.85260344c-178.15232277 0-323.13644886 144.98412609-323.13644887 323.13644886S333.84767723 707.0640292200001 512.07241965 707.0640292200001s323.13644886-144.98412609 323.13644885-323.13644887-144.91170645-323.13644886-323.13644885-323.13644885zM444.07037449 532.60510826c-13.10795545 0-23.75364304-10.64568758-23.75364304-23.75364303v-249.84776974c0-13.10795545 10.64568758-23.75364304 23.75364304-23.75364304s23.75364304 10.64568758 23.75364304 23.75364304v249.84776973c0.07241965 13.10795545-10.57326794 23.75364304-23.75364304 23.75364304zM580.0744648 532.60510826c-13.10795545 0-23.75364304-10.64568758-23.75364304-23.75364303v-249.84776974c0-13.10795545 10.64568758-23.75364304 23.75364304-23.75364304 13.10795545 0 23.75364304 10.64568758 23.75364303 23.75364304v249.84776973c0 13.10795545-10.64568758 23.75364304-23.75364303 23.75364304z"  horiz-adv-x="1024" />

    
    <glyph glyph-name="shoucang" unicode="&#58881;" d="M683.9 752.1c-67.95 0-130.95-34.2-172.8-90.45-41.4 56.25-104.85 90.45-172.8 90.45-122.4 0-221.85-108.9-221.85-242.55 0-79.65 35.55-135.9 64.35-180.9 83.25-130.95 292.95-293.4 301.95-300.15 8.55-6.75 18.45-9.9 28.35-9.9s19.8 3.15 28.35 9.9c9 6.75 218.25 169.65 301.95 300.15 28.8 45 64.35 101.25 64.35 180.9 0 133.65-99.45 242.55-221.85 242.55z m100.35-422.1c-76.95-108-239.85-231.3-247.95-237.15-7.65-5.85-16.65-9-25.2-9-9 0-17.55 2.7-25.2 9-8.1 5.85-167.85 130.5-247.95 241.65-25.65 40.5-66.6 90.9-66.6 162 0 119.7 66.6 203.85 175.95 203.85 60.75 0 126.9-58.05 163.8-108.45 37.35 50.4 103.05 108.45 163.8 108.45 109.8 0 180.9-84.15 180.9-203.85 0-71.1-45.45-126.45-71.55-166.5z"  horiz-adv-x="1024" />

    
    <glyph glyph-name="fanhui1" unicode="&#58884;" d="M386.9206543 140.95220946999996c-6.01501465 0-12.03826904 2.29888916-16.62780762 6.88842774L150.25866699 367.86657714c-9.1873169 9.1873169-9.1873169 24.07653809 1e-8 33.26385499 9.1873169 9.1873169 24.07653809 9.1873169 33.26385498 0l220.02593993-220.02593994c9.1873169-9.1873169 9.1873169-24.07653809 1e-8-33.26385498-4.59777833-4.59777833-10.61279297-6.88842773-16.62780762-6.88842773zM167.39733886 360.99462890999996c-6.01501465 0-12.03826904 2.29888916-16.62780761 6.88842773-9.1873169 9.1873169-9.1873169 24.07653809 0 33.26385498l219.01245117 219.01245117c9.1873169 9.1873169 24.07653809 9.1873169 33.26385498 0 9.1873169-9.1873169 9.1873169-24.07653809 0-33.26385498l-219.01245117-219.01245117c-4.59777833-4.59777833-10.62103271-6.88842773-16.63604736-6.88842773zM857.10528565 360.73095703H167.13366699c-12.98583984 0-23.5244751 10.53863526-23.52447509 23.5244751 0 12.98583984 10.53863526 23.5244751 23.5244751 23.5244751h689.97161865c12.98583984 0 23.5244751-10.53863526 23.5244751-23.5244751 0-12.98583984-10.53039551-23.5244751-23.5244751-23.5244751z"  horiz-adv-x="1024" />

    
    <glyph glyph-name="_huabanfuben" unicode="&#58926;" d="M755.33000183 88.91409302h-68.75038147a47.94759751 47.94759751 0 0 0-47.89352417 47.89352417V623.61439133a47.94759751 47.94759751 0 0 0 47.89352417 47.89352417h68.75038147a47.94759751 47.94759751 0 0 0 47.89352417-47.89352417V136.80761718999997a47.94759751 47.94759751 0 0 0-47.89352417-47.89352417z m-68.75038147 564.05439377a29.35409546 29.35409546 0 0 1-29.35409546-29.35409547V136.80761718999997a29.35409546 29.35409546 0 0 1 29.35409546-29.35409547h68.75038147a29.35409546 29.35409546 0 0 1 29.35409546 29.35409547V623.61439133a29.35409546 29.35409546 0 0 1-29.35409546 29.35409546zM546.37519074 90.62899016999995h-68.75038148a47.94759751 47.94759751 0 0 0-47.89352417 47.89352418V491.37419128a47.94759751 47.94759751 0 0 0 47.89352417 47.89352417h68.75038147a47.94759751 47.94759751 0 0 0 47.89352417-47.89352417v-352.85167694a47.94759751 47.94759751 0 0 0-47.89352417-47.89352416zM477.62480926 520.7282867399999a29.35409546 29.35409546 0 0 1-29.35409546-29.35409546v-352.85167694a29.35409546 29.35409546 0 0 1 29.35409546-29.35409545h68.75038148a29.35409546 29.35409546 0 0 1 29.35409546 29.35409546V491.37419128a29.35409546 29.35409546 0 0 1-29.35409546 29.35409546zM337.42037964 94.49137114999996h-68.75038147a47.94759751 47.94759751 0 0 0-47.89352417 47.89352417V348.78281021a47.94759751 47.94759751 0 0 0 47.89352417 47.89352417h68.75038147a47.94759751 47.94759751 0 0 0 47.89352417-47.89352417v-206.39791489a47.94759751 47.94759751 0 0 0-47.89352417-47.89352417z m-68.75038147 283.64553452a29.35409546 29.35409546 0 0 1-29.35409546-29.35409546v-206.39791489a29.35409546 29.35409546 0 0 1 29.35409546-29.35409545h68.75038147a29.35409546 29.35409546 0 0 1 29.35409546 29.35409546V348.78281021a29.35409546 29.35409546 0 0 1-29.35409546 29.35409546z"  horiz-adv-x="1024" />

    
    <glyph glyph-name="zhibo" unicode="&#59349;" d="M773.75355911 551.89770127H609.33200073l96.98438645 98.72245788c7.29990006 7.29990006 6.95228576 19.11878586-0.3476143 26.41868592-7.29990006 7.29990006-19.11878586 6.95228576-26.41868591-0.3476143L557.18985748 551.89770127H468.89582825L346.18798447 676.6912307800001c-7.29990006 7.29990006-19.11878586 7.29990006-26.41868591 0.34761429-7.29990006-7.29990006-7.29990006-19.11878586-0.3476143-26.41868592l96.98438645-98.72245788H251.98451232c-37.54234314 0-68.4800148-30.59005737-68.48001479-68.48001481v-327.10504532c0-37.54234314 30.59005737-68.4800148 68.48001479-68.48001479h521.76904679c37.54234314 0 68.4800148 30.59005737 68.4800148 68.48001479V483.41768647c0 37.88995743-30.59005737 68.4800148-68.4800148 68.4800148z m31.28528596-395.58506013c0-17.03310012-13.90457153-30.93767166-30.93767167-30.93767166H251.98451232c-17.03310012 0-30.93767166 13.90457153-30.93767165 30.93767166V483.41768647c0 17.03310012 13.90457153 30.93767166 30.93767165 30.93767165h521.76904679c17.03310012 0 30.93767166-13.90457153 30.93767166-30.93767166v-327.10504532zM607.94154357 336.02922820000003L446.6485138 429.18985748c-5.9094429 3.47614289-12.86172866 3.47614289-18.77117158 0-5.9094429-3.47614289-9.38558579-9.38558579-9.38558578-15.99025726v-186.32125855c0-6.60467148 3.47614289-12.86172866 9.38558578-15.99025727 2.7809143-1.73807144 6.25705719-2.43330002 9.38558579-2.43330001 3.1285286 0 6.60467148 0.69522858 9.38558579 2.43330002l161.29302977 93.16062927c5.9094429 3.47614289 9.38558579 9.38558579 9.3855858 15.99025726s-3.47614289 12.86172866-9.3855858 15.99025726zM456.03409958 258.8588562v121.66500092l105.32712935-60.83250046L456.03409958 258.8588562z"  horiz-adv-x="1024" />

    
    <glyph glyph-name="shoucang1" unicode="&#58950;" d="M736.25 856.637c-88.104 0-169.783-44.344-224.05-117.273C458.527 812.298 376.259 856.637 288.154 856.637 129.459 856.637 0.512 715.443 0.512 542.157c0-103.27 46.09-176.205 83.43-234.547 107.94-169.79 379.833-380.411 391.496-389.166a58.808 58.808 0 0 1 36.757-12.836c12.835 0 25.671 4.085 36.756 12.836 11.674 8.755 282.977 219.965 391.5 389.166 37.346 58.347 83.436 131.276 83.436 234.547 0.005 173.286-128.937 314.48-287.636 314.48z m130.105-547.276c-99.763-140.027-310.973-299.894-321.48-307.477-9.917-7.588-21.59-11.673-32.675-11.673-11.669 0-22.754 3.502-32.671 11.673-10.506 7.578-217.63 169.196-321.485 313.308C124.79 367.703 71.695 433.05 71.695 525.23c0 155.203 86.35 264.305 228.132 264.305 78.766 0 164.537-75.264 212.373-140.61 48.43 65.346 133.611 140.61 212.377 140.61 142.362 0 234.553-109.102 234.553-264.305 0-92.175-58.937-163.942-92.775-215.87z"  horiz-adv-x="1024" />

    
    <glyph glyph-name="yinleyanzou" unicode="&#58882;" d="M511.64196832 85.04354362000004c-137.00679119 0-257.06674932 100.90526303-277.0568517 240.35860405C212.68551192 478.22200492 319.19993801 620.4202555300001 472.0794672 642.37953217c18.67731953 2.68523764 37.6529988 3.46097294 56.33031834 2.3868779 7.33964953-0.41770364 12.9488126-6.74293006 12.53110895-14.08257958-0.41770364-7.33964953-6.74293006-12.9488126-14.08257959-12.53110896-16.94683306 1.01442311-34.07268196 0.23868779-51.01951503-2.1481901C337.51922586 596.19344489 241.08935888 467.4810544 260.90044541 329.16148034 280.77120388 190.84190632000002 409.42392244 94.41203934999999 547.80316842 114.22312588c138.31957403 19.81108653 234.74944101 148.52347703 214.93835448 286.84305107-5.19145943 36.280544-17.78224031 70.23388207-37.41431101 100.78591913-3.93834852 6.20588253-2.1481901 14.44061126 3.99802047 18.37895979 6.20588253 3.93834852 14.44061126 2.1481901 18.3789598-3.99802046 21.72058883-33.83399418 35.62415259-71.30797713 41.35265954-111.40752578 21.89960469-152.8795292-84.61482138-295.07777981-237.49435058-316.9773845-13.42618817-1.84983038-26.73303243-2.80458154-39.9205328-2.80458151zM670.5483642 566.65583093c-36.57890375 0-66.35520548 25.95729711-66.3552055 57.88178897s29.77630175 57.88178896 66.3552055 57.88178896 66.35520548-25.95729711 66.35520549-57.88178896-29.77630175-57.88178896-66.35520549-57.88178897z m0 89.09021745c-21.89960469 0-39.74151695-14.02290765-39.74151697-31.26810042s17.84191227-31.26810043 39.74151697-31.26810043c21.89960469 0 39.74151695 14.02290765 39.74151695 31.26810043s-17.84191227 31.26810043-39.74151695 31.26810042zM511.82098415 246.15780154000004c-65.57947018 0-118.92619114 53.34672097-118.92619113 118.92619114s53.34672097 118.92619114 118.92619114 118.92619113S630.7471753 430.7231348 630.7471753 365.14366462 577.40045434 246.15780154000004 511.82098415 246.15780154000004z m1e-8 211.29836569c-50.90017112 0-92.31250261-41.41233148-92.3125026-92.3125026 0-50.90017112 41.41233148-92.31250261 92.3125026-92.3125026s92.31250261 41.41233148 92.31250261 92.3125026c0 50.90017112-41.41233148 92.31250261-92.31250262 92.3125026zM617.44033103 351.83682037000005c-7.33964953 0-13.30684427 5.96719474-13.30684426 13.30684425V625.55204301c0 7.33964953 5.96719474 13.30684427 13.30684426 13.30684427s13.30684427-5.96719474 13.30684427-13.30684428v-260.46805032c0-7.27997758-5.96719474-13.24717233-13.30684427-13.24717231z"  horiz-adv-x="1024" />

    
    <glyph glyph-name="xiazai" unicode="&#58887;" d="M483.2 73.6v256c0 12.8 12.8 25.6 25.6 25.6s25.6-12.8 25.6-25.6v-256l51.2 38.4c12.8 6.4 25.6 6.4 38.4-6.4 12.8-19.2 6.4-32-6.4-38.4l-96-70.4c0-6.4-6.4-6.4-12.8-6.4s-12.8 0-12.8 6.4l-96 70.4c-12.8 6.4-12.8 25.6-6.4 38.4 6.4 12.8 25.6 12.8 38.4 6.4l51.2-38.4zM278.4 112h-19.2C144 112 54.4 214.4 54.4 336c0 128 96 230.4 211.2 224C304 688 412.8 777.6 534.4 777.6 668.8 777.6 784 675.2 816 528c89.6-19.2 153.6-102.4 153.6-204.8C969.6 208 886.4 112 784 112c-32 0-96 0-166.4 57.6-12.8 12.8-12.8 32 0 38.4 12.8 12.8 25.6 12.8 38.4 0 51.2-51.2 96-44.8 121.6-44.8h6.4c76.8 0 134.4 70.4 134.4 160 0 83.2-57.6 153.6-128 160-12.8 0-19.2 12.8-25.6 19.2-19.2 128-115.2 224-230.4 224-102.4 0-198.4-83.2-224-198.4 0-12.8-12.8-19.2-32-19.2h-25.6c-83.2 0-147.2-76.8-147.2-172.8 0-96 64-172.8 147.2-172.8h12.8c25.6 0 57.6 0 102.4 44.8 12.8 12.8 25.6 12.8 38.4 0 12.8-12.8 12.8-25.6 0-38.4-51.2-51.2-96-57.6-128-57.6z"  horiz-adv-x="1024" />

    
    <glyph glyph-name="save" unicode="&#58888;" d="M1019.37548387 412.18752688a281.87526881 281.87526881 0 0 0-281.87526881-281.87526881 28.18752688 28.18752688 0 1 0 0 56.37505375 225.50021506 225.50021506 0 0 1 30.16065376 449.02730323l-15.89776516 2.085877-6.31400603 14.77026408a253.68774193 253.68774193 0 0 1-466.89819526 0l-6.31400603-14.77026408-15.89776516-2.085877A225.50021506 225.50021506 0 0 1 286.49978494 186.68731182a28.18752688 28.18752688 0 1 0 0-56.37505375 281.87526881 281.87526881 0 0 0-53.2744258 558.67678279 310.06279569 310.06279569 0 0 0 557.54928172 0A281.98801892 281.98801892 0 0 0 1019.37548387 412.18752688zM407.48065032 53.980435270000044a28.18752688 28.18752688 0 0 0 39.91353807 39.91353807l84.56258064-84.56258066a28.18752688 28.18752688 0 0 0-39.91353806-39.91353806l-84.56258064 84.56258065zM531.95676903-30.582145380000043a28.18752688 28.18752688 0 0 0-39.91353806 39.91353806l84.56258064 84.56258066a28.18752688 28.18752688 0 0 0 39.91353807-39.91353807l-84.56258065-84.56258065zM483.81247312 355.81247312000005a28.18752688 28.18752688 0 1 0 56.37505376 0v-339.82882409a28.18752688 28.18752688 0 0 0-56.37505376 0V355.81247312000005z"  horiz-adv-x="1024" />

    
    <glyph glyph-name="love" unicode="&#58889;" d="M707.584 802.816c-77.312 0-148.992-38.912-196.608-102.912-47.104 64-119.296 102.912-196.608 102.912-139.264 0-252.416-123.904-252.416-275.968 0-90.624 40.448-154.624 73.216-205.824C229.888 172.03200000000004 468.48-12.799999999999955 478.72-20.480000000000018c9.728-7.68 20.992-11.264 32.256-11.264s22.528 3.584 32.256 11.264c10.24 7.68 248.32 193.024 343.552 341.504 32.768 51.2 73.216 115.2 73.216 205.824 0 152.064-113.152 275.968-252.416 275.968zM821.76 322.55999999999995c-87.552-122.88-272.896-263.168-282.112-269.824-8.704-6.656-18.944-10.24-28.672-10.24-10.24 0-19.968 3.072-28.672 10.24-9.216 6.656-190.976 148.48-282.112 274.944-29.184 46.08-75.776 103.424-75.776 184.32 0 136.192 75.776 231.936 200.192 231.936 69.12 0 144.384-66.048 186.368-123.392 42.496 57.344 117.248 123.392 186.368 123.392 124.928 0 205.824-95.744 205.824-231.936 0-80.896-51.712-143.872-81.408-189.44z"  horiz-adv-x="1024" />

    
    <glyph glyph-name="liebiao1" unicode="&#58904;" d="M879.82226563 362.02734375h-735.64453125c-12.12890625 0-21.97265625 9.84375-21.97265625 21.97265625s9.84375 21.97265625 21.97265625 21.97265625h735.64453125c12.12890625 0 21.97265625-9.84375 21.97265625-21.97265625s-9.84375-21.97265625-21.97265625-21.97265625zM879.82226563 594.9375h-735.64453125c-12.12890625 0-21.97265625 9.84375-21.97265625 21.97265625s9.84375 21.97265625 21.97265625 21.97265625h735.64453125c12.12890625 0 21.97265625-9.84375 21.97265625-21.97265625s-9.84375-21.97265625-21.97265625-21.97265625zM879.82226563 129.1171875h-735.64453125c-12.12890625 0-21.97265625 9.84375-21.97265625 21.97265625s9.84375 21.97265625 21.97265625 21.97265625h735.64453125c12.12890625 0 21.97265625-9.84375 21.97265625-21.97265625s-9.84375-21.97265625-21.97265625-21.97265625z"  horiz-adv-x="1024" />

    
    <glyph glyph-name="zhibo1" unicode="&#59585;" d="M711.99999969 522.45l98.80000031 49.18000031A70.00000031 70.00000031 0 0 0 912.00000031 508.96999969v-253.29999938a70.00000031 70.00000031 0 0 0-102.37000031-62.06000062L711.99999969 244.51999968999996V204c0-60.75-49.24999969-109.99999969-109.99999969-109.99999969H222.00000031c-60.75 0-109.99999969 49.24999969-110.00000062 109.99999969V564c0 60.75 49.24999969 109.99999969 110.00000062 109.99999969h379.99999969c60.75 0 109.99999969-49.24999969 109.99999969-109.99999969v-41.55z m0-67.03000031V312.19999969l125.38000031-65.37999938A10.00000031 10.00000031 0 0 1 852.00000031 255.67999969000005V508.96999969a10.00000031 10.00000031 0 0 1-14.46 8.95000031L711.99999969 455.41999969zM651.99999969 204V564a49.99999969 49.99999969 0 0 1-49.99999969 49.99999969H222.00000031a49.99999969 49.99999969 0 0 1-50.00000062-49.99999969v-360a49.99999969 49.99999969 0 0 1 50.00000062-49.99999969h379.99999969a49.99999969 49.99999969 0 0 1 49.99999969 49.99999969zM302 424.00000031a60 60 0 1 0 0 120 60 60 0 0 0 0-120z"  horiz-adv-x="1024" />

    
    <glyph glyph-name="diantai" unicode="&#58934;" d="M762.88378932 568.0429690000001H326.24316432l74.22363255 74.22363256c10.28320313 10.28320313 10.28320313 27.02636744 0 37.30957057s-27.02636744 10.28320313-37.30957056 0l-128.40820287-128.27636744c-0.39550781-0.39550781-0.65917943-0.92285182-1.05468725-1.31835963a79.23339869 79.23339869 0 0 1-28.87207031-61.04003856v-324.31640625c0-43.63769557 35.46386693-79.1015625 79.1015625-79.1015625h478.69628855c43.63769557 0 79.1015625 35.46386693 79.1015625 79.1015625v324.31640625c0.26367162 43.63769557-35.20019531 79.1015625-78.83789011 79.1015625z m26.36718724-403.41796875c0-14.50195287-11.86523438-26.36718725-26.36718724-26.367188H284.1875c-14.50195287 0-26.36718725 11.86523438-26.36718725 26.367188v324.31640625c0 14.50195287 11.86523438 26.36718725 26.36718725 26.36718725h478.69628932c14.50195287 0 26.36718725-11.86523438 26.36718724-26.36718725v-324.31640625zM412.59570287 440.425781c-59.06250025 0-107.050781-47.9882815-107.05078099-107.050781 0-59.06250025 47.9882815-107.050781 107.05078099-107.050781 58.93066406 0 107.050781 47.9882815 107.05078176 107.050781-0.13183619 59.06250025-48.12011693 107.050781-107.05078176 107.050781z m0-161.23535131c-29.92675756 0-54.3164065 24.38964818-54.31640574 54.3164065s24.38964818 54.3164065 54.31640574 54.31640574 54.3164065-24.38964818 54.31640651-54.31640574-24.38964818-54.3164065-54.31640651-54.3164065zM701.97558619 410.36718725h-105.46875051c-14.50195287 0-26.36718725-11.86523438-26.36718724-26.36718725s11.86523438-26.36718725 26.36718724-26.36718725h105.46875051a26.36718725 26.36718725 0 1 1 0 52.7343745zM701.97558619 300.94335937000005h-105.46875051c-14.50195287 0-26.36718725-11.86523438-26.36718724-26.36718724s11.86523438-26.36718725 26.36718724-26.36718801h105.46875051a26.36718725 26.36718725 0 1 1 0 52.73437526z"  horiz-adv-x="1024" />

    
    <glyph glyph-name="gedan" unicode="&#58935;" d="M861.62890625 598.36523438c-35.59570313 40.6054685-80.94726537 72.37792969-131.04492213 91.75781249a26.28808568 26.28808568 0 0 1-35.85937474-24.52148437v-324.71191406a137.50488256 137.50488256 0 0 1-85.69335913 29.92675756c-76.33300781 0-138.42773438-62.09472656-138.42773437-138.42773438S532.69824244 93.96093725000003 609.03125025 93.96093725000003s138.42773438 62.09472656 138.42773438 138.42773437c0 1.45019506-0.13183619 2.90039088-0.26367238 4.35058594 0 0.79101563 0.26367162 1.45019506 0.26367238 2.24121144V624.07324219c27.9492185-15.68847631 53.39355469-36.25488256 74.61914037-60.38085912 9.62402369-10.94238256 26.36718725-11.99707057 37.17773438-2.37304688 10.94238256 9.4921875 11.99707057 26.10351563 2.37304687 37.04589818zM609.03125025 146.6953125c-47.19726588 0-85.69335912 38.496094-85.69335988 85.69335912s38.496094 85.69335912 85.69335988 85.69335988 85.69335912-38.496094 85.69335913-85.69335988-38.496094-85.69335912-85.69335913-85.69335912zM259.66601562 542.203125h303.222656c14.50195287 0 26.36718725 11.86523438 26.36718801 26.36718725s-11.86523438 26.36718725-26.36718801 26.367188h-303.22265599a26.36718725 26.36718725 0 1 1 0-52.73437525zM444.23632787 423.55078125h-184.57031224c-14.50195287 0-26.36718725-11.86523438-26.36718725-26.36718725s11.86523438-26.36718725 26.36718724-26.367188h184.57031225c14.50195287 0 26.36718725 11.86523438 26.36718801 26.367188s-11.86523438 26.36718725-26.36718801 26.36718725zM365.13476537 252.16406225000003h-105.46874974c-14.50195287 0-26.36718725-11.86523438-26.36718725-26.36718725s11.86523438-26.36718725 26.36718725-26.36718725h105.46874974c14.50195287 0 26.36718725 11.86523438 26.36718801 26.36718725s-11.86523438 26.36718725-26.36718801 26.36718725z"  horiz-adv-x="1024" />

    


  </font>
</defs>
</svg>
